<?xml version="1.0" encoding="UTF-8"?> <svg xmlns="http://www.w3.org/2000/svg" xmlns:xlink="http://www.w3.org/1999/xlink" width="131" height="122" viewBox="0 0 131 122"><defs><path id="jcywrk35ka" d="M0 0h34.72v29.832H0z"></path><path id="s2afgvjhec" d="M0 121.044h130.887V0H0z"></path></defs><g fill="none" fill-rule="evenodd"><path d="M111.252 48.723a17.523 17.523 0 0 0 3.224 5.198 11.769 11.769 0 0 0 5.927 3.017c2.5.535 5.071.658 7.611.365-1.068-2.782-2.1-5.574-3.285-8.32-.135.012-.27.023-.407.03-4.062.23-7.327-.928-9.703-3.441-.632-.664-1.246-1.416-1.899-2.21a19.138 19.138 0 0 0-4.953-4.783c-1.535-.037-3.07.04-4.593.232 4.1 2.118 6.46 6.368 8.073 9.908" fill="#B7B6B6"></path><path d="M112.962 43.173c.646.789 1.257 1.535 1.881 2.193 2.373 2.504 5.648 3.622 9.762 3.323-.007-.015-.011-.03-.02-.045a26.882 26.882 0 0 0-2.049-3.998.525.525 0 0 1-.044.145c-.262.5-1.168.654-1.739.687-.139.007-.261.007-.345 0a7.15 7.15 0 0 1-3.635-1.165 10.535 10.535 0 0 1-2.703-2.973 12.795 12.795 0 0 0-2.01-2.419c-.408-.058-.824-.11-1.234-.15-.805-.083-1.62-.14-2.435-.172a21.514 21.514 0 0 1 4.571 4.571M125.614 68.31c-7.205-.88-15.368-1.88-17.066-7.571-.397-1.194-.753-2.55-1.132-3.987-1.26-4.768-2.689-10.177-6.352-12.943a18.327 18.327 0 0 0-5.27-2.776c-.05.026-.102.047-.151.073a20.85 20.85 0 0 0-4.436 3.178c2.45 1 4.706 2.42 6.668 4.195l.241.213a19.776 19.776 0 0 1 4.106 4.418 20.862 20.862 0 0 1 2.443 6.273c.329 1.425.57 2.888.804 4.305a49.49 49.49 0 0 0 1.158 5.683c.758 2.646 2.328 6.236 5.488 8.243a14.874 14.874 0 0 0 5.832 1.953c.814.126 1.645.224 2.452.32 1.253.147 2.545.298 3.807.562 1.056.21 2.09.526 3.082.943.57-1.618 1.129-3.24 1.66-4.87a38.285 38.285 0 0 0 1.82-7.497c-1.582-.281-3.331-.497-5.156-.72" fill="#B7B6B6"></path><path d="M114.317 41.17a10.343 10.343 0 0 0 2.622 2.894 6.859 6.859 0 0 0 3.48 1.12c.52.021 1.585-.112 1.805-.53.085-.166.027-.384-.177-.651l.027-.02a11.097 11.097 0 0 0-.926-1.102c-2.219-2.294-5.367-3.359-8.555-3.868a15.236 15.236 0 0 1 1.723 2.166" fill="#B7B6B6"></path><g transform="translate(96.166 38.892)"><mask id="6zuoidys4b" fill="#fff"><use xlink:href="#jcywrk35ka"></use></mask><path d="M30.551 18.84a24.47 24.47 0 0 1-6.38-.5 12.052 12.052 0 0 1-6.08-3.1 17.782 17.782 0 0 1-3.281-5.284C13.166 6.346 10.738 1.996 6.47 0A22.229 22.229 0 0 0 0 1.955a18.07 18.07 0 0 1 5.083 2.722c3.742 2.83 5.19 8.289 6.459 13.105.377 1.431.734 2.783 1.131 3.969 1.639 5.504 9.702 6.491 16.813 7.362 1.824.224 3.574.438 5.152.719.03-.333.059-.664.075-.998.007-.136.007-.265.008-.398a21.317 21.317 0 0 0-.359-3.114c-.027-.136-.056-.27-.086-.407a45.483 45.483 0 0 0-1.81-4.92c-.17-.433-.337-.866-.51-1.3-.445.063-.91.111-1.406.14" fill="#B7B6B6" mask="url(#6zuoidys4b)"></path></g><path d="M91.488 68.837c1.858-2.797 3.963-5.968 1.264-8.877-2.357-2.544-6.022-3.686-9.101-4.376a30.755 30.755 0 0 1-2.247 3.902c2.057.348 4.181.895 5.149 2.844 1.366 3.452-.06 6.754-1.44 9.95a25.73 25.73 0 0 0-1.788 5.076c-.407 1.984-.712 4.829 1.232 6.657.597.527 1.213 1.048 1.865 1.601 4.03 3.415 8.59 7.277 8.197 13.146 1.961.478 3.936.926 5.91 1.308-.527-4.496-1.516-9.052-4.832-12.25a43.957 43.957 0 0 0-1.925-1.716c-2.13-1.825-4.333-3.711-5.042-6.616-.766-3.14.092-6.615 2.554-10.341l.204-.308zM79.217 86.707c-.226-.39-.45-.787-.678-1.19a12.076 12.076 0 0 1-1.483-6.506c.04-.805.145-1.622.247-2.412.237-1.374.306-2.773.204-4.165a7.38 7.38 0 0 0-3.156-5.075 12.901 12.901 0 0 0-1.806 3.21c-1.36 3.639-.557 7.704.484 11.448a23.831 23.831 0 0 0 3.963 8.752 16.38 16.38 0 0 0 5.362 4.206c-.238-3.197-1.65-5.671-3.138-8.272M124.146 80.751c-1.244-.261-2.535-.413-3.779-.559-.814-.096-1.646-.194-2.466-.322a15.195 15.195 0 0 1-5.946-1.994c-3.242-2.066-4.843-5.72-5.619-8.421a50.728 50.728 0 0 1-1.165-5.717c-.232-1.412-.472-2.872-.8-4.285a20.416 20.416 0 0 0-2.408-6.184 19.55 19.55 0 0 0-4.046-4.35l-.244-.214a22.306 22.306 0 0 0-6.717-4.19 26.151 26.151 0 0 0-2.387 2.612c.196.079.394.149.59.212.306.087.6.206.882.352a30.212 30.212 0 0 1 11.4 12.837c.935 2.595.643 5.42.365 8.152a19.902 19.902 0 0 0 .09 7.022c.923 3.17 5.094 6.73 8.776 9.873a49.605 49.605 0 0 1 4.463 4.092 13.822 13.822 0 0 1 3.207 8.753 11.968 11.968 0 0 0 1.842-1.527 18.698 18.698 0 0 0 3.739-6.298c.305-.758.584-1.527.863-2.285a520.809 520.809 0 0 0 2.4-6.627 15.634 15.634 0 0 0-3.046-.932" fill="#B7B6B6"></path><path d="M114.915 89.87a49.95 49.95 0 0 0-4.433-4.064c-3.714-3.171-7.922-6.762-8.872-10.023a20.118 20.118 0 0 1-.102-7.132c.277-2.7.563-5.49-.343-8.007A29.9 29.9 0 0 0 89.89 47.953a4.378 4.378 0 0 0-.82-.325 7.914 7.914 0 0 1-.692-.253c-.44.564-.86 1.14-1.262 1.73a33.116 33.116 0 0 0-2.201 3.9c5.52-.1 8.472 2.037 10.084 7.245 1.419 4.265.997 9.61.627 14.327-.076.988-.151 1.92-.204 2.801a8.076 8.076 0 0 0 1.707 4.716c.497.558 1.018 1.131 1.541 1.71 4.58 5.064 9.316 10.297 9.16 17.237a17.993 17.993 0 0 0 10.218-2.423 13.651 13.651 0 0 0-3.135-8.753" fill="#B7B6B6"></path><path d="M98.448 84.011a234.055 234.055 0 0 1-1.556-1.73 8.356 8.356 0 0 1-1.768-4.913c.053-.884.126-1.82.204-2.808.37-4.688.787-10.001-.611-14.21-1.577-5.107-4.487-7.173-9.947-7.032l-.975 1.992c3.108.701 6.792 1.867 9.187 4.45 2.86 3.082.59 6.5-1.235 9.247l-.203.305c-2.414 3.65-3.258 7.048-2.513 10.102.685 2.813 2.85 4.668 4.944 6.46a42.2 42.2 0 0 1 1.94 1.731c3.404 3.286 4.4 7.944 4.932 12.525 1.62.306 3.236.575 4.838.76.61.071 1.229.12 1.85.146.151-6.819-4.54-12.003-9.082-17.023M77.808 72.4a17.43 17.43 0 0 1-.204 4.24c-.102.782-.203 1.593-.247 2.385a11.735 11.735 0 0 0 1.446 6.344c.223.402.45.799.674 1.188 1.533 2.68 2.986 5.229 3.19 8.577a28.607 28.607 0 0 0 4.58 1.75c-.407-2.91-2.117-5.125-3.932-7.462a31.998 31.998 0 0 1-3.069-4.46c-1.817-3.27-.754-6.35.374-9.615.21-.61.426-1.236.624-1.867a8.589 8.589 0 0 0-3.95-9.406 33.64 33.64 0 0 0-2.761 3.041 7.672 7.672 0 0 1 3.276 5.284" fill="#B7B6B6"></path><path d="M86.226 85.846a128.18 128.18 0 0 1-1.871-1.608c-2.062-1.933-1.743-4.885-1.323-6.939a25.71 25.71 0 0 1 1.803-5.139c1.357-3.139 2.756-6.384 1.44-9.706-.922-1.86-2.968-2.348-5.064-2.692-.219.305-.447.604-.688.897-.916 1.113-1.967 2.149-3.007 3.194a8.896 8.896 0 0 1 4.02 9.705c-.203.648-.42 1.28-.628 1.888-1.104 3.198-2.149 6.22-.396 9.372a31.782 31.782 0 0 0 3.042 4.42c1.868 2.405 3.63 4.681 4.01 7.735.408.113.806.224 1.209.324 1.823.457 3.679.932 5.55 1.389.349-5.688-4.131-9.485-8.094-12.842" fill="#B7B6B6"></path><path d="M81.582 65.044c-.069.102-.14.204-.219.305l.017-.017c.278-.33.538-.675.779-1.034-.218.226-.411.475-.576.74" fill="#B7B6B6"></path><path d="M101.242 15.659c.906-.393 1.854-.705 2.773-1.007 1.21-.363 2.39-.819 3.528-1.363 2.665-1.366 4.63-4.874 5.262-9.385l.006-.046-.034-.032c-.26-.252-.531-.527-.814-.814-.305-.305-.61-.622-.933-.932l-.086-.084-.057.102a19.91 19.91 0 0 1-2.85 4.187 9.208 9.208 0 0 1-6.57 3.23h-.096a14.3 14.3 0 0 1-1.832-.192 6.688 6.688 0 0 0-3.324.045 3.62 3.62 0 0 0-1.256.79l-.031.03v.043c.085 1.005.285 1.998.594 2.957a58.914 58.914 0 0 0 1.884 5.131l.059.142.096-.123a9.532 9.532 0 0 1 3.685-2.68" fill="#8F8F8F"></path><path d="M96.105 9.086a7.029 7.029 0 0 1 3.472-.06c.594.101 1.194.164 1.797.188h.102a8.906 8.906 0 0 0 6.333-3.133 20.483 20.483 0 0 0 2.87-4.238l.032-.064-.052-.046a6.723 6.723 0 0 0-2.382-1.548c-1.563-.497-3.156.102-4.703.685-.567.211-1.103.414-1.628.56a10.21 10.21 0 0 0-5.62 3.187 7.614 7.614 0 0 0-1.44 5.02l.008.183.142-.112c.319-.265.68-.475 1.068-.622M108.411 18.21l-.049-.077.067.065c.855-.549 1.74-1.113 2.581-1.688a11.614 11.614 0 0 0 3.589-3.423 13.357 13.357 0 0 0 1.355-4.33c.087-.465.18-.946.286-1.411l.013-.047-.032-.035c-1.052-1.17-2.168-2.239-3.022-3.035l-.125-.116-.025.168c-.701 4.444-2.71 7.912-5.37 9.273a24.58 24.58 0 0 1-3.575 1.383c-.911.305-1.854.61-2.748.996a8.966 8.966 0 0 0-3.732 2.81l-.029.042.02.047a37.08 37.08 0 0 0 2.811 5.328c.024.035.045.068.07.102.026.033.038.056.059.084l.067.102.08-.102c2.06-2.531 4.93-4.368 7.707-6.144" fill="#8F8F8F"></path><path d="M107.357 25.114a12.587 12.587 0 0 1 3.133-1.816l.047-.021c.279-.127.557-.255.832-.387a23.025 23.025 0 0 0 9.11-8.04l.021-.033-.01-.04c-.01-.043-.017-.088-.027-.132a2.123 2.123 0 0 0-.04-.18 16.831 16.831 0 0 0-3.802-6.747l-.119-.14-.037.179a48.15 48.15 0 0 0-.22 1.08 13.486 13.486 0 0 1-1.388 4.4 11.846 11.846 0 0 1-3.679 3.518c-.833.57-1.712 1.132-2.56 1.674l-.043.03c-2.803 1.791-5.7 3.645-7.725 6.188l-.044.053.04.055a12.49 12.49 0 0 0 4.051 3.781l.084.047.042-.087c.023-.053.048-.102.07-.159a9.337 9.337 0 0 1 2.26-3.226" fill="#8F8F8F"></path><path d="m120.632 15.465-.04-.217-.126.182a23.03 23.03 0 0 1-8.97 7.735c-.257.123-.52.243-.78.364l-.101.048c-1.1.44-2.13 1.035-3.06 1.768a9.024 9.024 0 0 0-2.19 3.14c-.028.071-.046.109-.071.161l-.038.081.079.04a8.543 8.543 0 0 0 3.777.887 10.463 10.463 0 0 0 5.525-1.73c.34-.211.648-.412.936-.61a13.776 13.776 0 0 0 3.307-3.099 11.141 11.141 0 0 0 1.755-8.743" fill="#8F8F8F"></path><path d="M16.94 8.928a64.139 64.139 0 0 0 12.834 5.293c.044.014.087.022.131.034-.024-.064-.05-.128-.076-.193a38.593 38.593 0 0 0-2.313-5.22 21.338 21.338 0 0 1-10.43-6.266 9.347 9.347 0 0 0-3.62 2.07c-.4.33-.788.673-1.172 1.019A19.949 19.949 0 0 0 16.94 8.92M9.68 16.481c1.843.73 3.723 1.36 5.634 1.89 1.133.337 2.308.685 3.45 1.072a46.574 46.574 0 0 1 14.86 8.368c.064-.148.12-.3.167-.454a6.5 6.5 0 0 0-.366-4.113 204.423 204.423 0 0 0-1.714-4.43A41.46 41.46 0 0 1 7.452 9.522 26.3 26.3 0 0 0 3.612 12c-.08.07-.157.142-.234.213a16.802 16.802 0 0 0 6.303 4.266" fill="#7F8080"></path><path d="M31.592 18.508c-.52-1.3-1.035-2.6-1.546-3.9-.118-.03-.237-.056-.355-.092a64.412 64.412 0 0 1-12.893-5.322 20.21 20.21 0 0 1-4.725-3.318 33.64 33.64 0 0 1-3.38 2.857c-.314.219-.636.422-.964.622a41.158 41.158 0 0 0 23.862 9.153M27.304 8.477c-.158-.26-.319-.518-.495-.77a13.411 13.411 0 0 0-4.357-4.142 8.348 8.348 0 0 0-3.585-1.143c-.118-.008-.234-.01-.352-.013a5.8 5.8 0 0 0-1.09.096 21.04 21.04 0 0 0 9.879 5.972M18.664 19.728a88.696 88.696 0 0 0-3.436-1.068 55.865 55.865 0 0 1-5.662-1.902 17.087 17.087 0 0 1-6.412-4.337A10.293 10.293 0 0 0 .42 17.34a20.192 20.192 0 0 0 8.374 5.21c1.54.563 3.14 1.043 4.688 1.507a54.04 54.04 0 0 1 7.125 2.507c2.182 1.007 5.747 3.098 7.67 6.586a23.067 23.067 0 0 0 3.134-2.58 9.752 9.752 0 0 0 2.063-2.482 46.318 46.318 0 0 0-14.82-8.361" fill="#7F8080"></path><path d="M20.49 26.842a53.492 53.492 0 0 0-7.09-2.49c-1.553-.465-3.155-.947-4.706-1.514A20.71 20.71 0 0 1 .34 17.704a17.745 17.745 0 0 0 .193 7.776c1.943 1.344 4.331 1.796 6.842 2.268a18.543 18.543 0 0 1 7.005 2.305c1.06.74 1.998 1.64 2.781 2.667 1.72.435 3.257 1.452 4.987 1.87a7.532 7.532 0 0 0 5.422-.997c.155-.088.306-.18.46-.275-1.88-3.425-5.394-5.486-7.543-6.476" fill="#7F8080"></path><path d="M14.211 30.305a18.302 18.302 0 0 0-6.892-2.26 18.825 18.825 0 0 1-6.68-2.137c.156.601.333 1.188.533 1.753a42.9 42.9 0 0 0 1.942 4.321c1.1.001 2.2.097 3.284.285a8.807 8.807 0 0 1 4.028 1.779c1.885-.795 3.727-1.74 5.85-1.495.137.015.274.038.408.06a11.694 11.694 0 0 0-2.47-2.306" fill="#7F8080"></path><path d="M6.341 32.564a18.656 18.656 0 0 0-3.07-.276 4.972 4.972 0 0 0 2.196 2.341 4.89 4.89 0 0 0 3.5-.023c.387-.126.766-.275 1.146-.43a8.634 8.634 0 0 0-3.773-1.61" fill="#7F8080"></path><path d="M15.473 42.796c2.045.11 4.071.438 6.046.98 2.09.494 4.04 1.46 5.7 2.826a12.858 12.858 0 0 1 3.229 6.321 33.037 33.037 0 0 1 .977 8.55c-.088 5.301-1.464 10.522-2.794 15.571a88.41 88.41 0 0 0-2.527 11.754c-1.252 10.417 1.323 20.772 4.629 30.024a27.596 27.596 0 0 0 8.314 2.119 52.76 52.76 0 0 1-3.54-32.81c.415-1.902.946-3.819 1.462-5.672 1.102-3.976 2.24-8.088 2.282-12.258a40.122 40.122 0 0 0-.782-7.43 111.65 111.65 0 0 0-3.165-12.96c-.796-2.585-1.831-5.497-4.017-7.35a13.984 13.984 0 0 0-4.486-2.308 52.314 52.314 0 0 0-6.195-1.741 14.842 14.842 0 0 0-8.403 4.025c1.136.166 2.221.264 3.272.357" fill="#A09F9F"></path><path d="M22.015 91.191c1.652-7.16 3.364-14.566 4.54-22.203.331-3.038.16-6.11-.51-9.092-2.662-7.447-8.74-13.413-15.603-15.368-.3.433-.579.88-.834 1.341 3.257 3.78 10.483 13.085 10.187 20.888a112.913 112.913 0 0 1-1.25 11.576 93.576 93.576 0 0 0-1.274 13.816c.016 2.386.147 4.81.276 7.153.075 1.358.149 2.748.203 4.138.334.915.658 1.838.999 2.753.979-5.062 2.137-10.11 3.267-15" fill="#A09F9F"></path><path d="M25.804 88.765a88.243 88.243 0 0 1 2.535-11.795c1.323-5.033 2.695-10.234 2.78-15.498a32.698 32.698 0 0 0-.966-8.475 12.574 12.574 0 0 0-3.142-6.174 13.812 13.812 0 0 0-5.577-2.757 28.642 28.642 0 0 0-5.986-.968c-1.108-.102-2.257-.204-3.46-.383l-.043-.006c-.477.488-.918 1.01-1.32 1.561 6.922 2.014 13.028 8.032 15.712 15.556.682 3.021.855 6.135.515 9.214-1.176 7.645-2.887 15.056-4.542 22.224-1.165 5.042-2.365 10.25-3.36 15.47a22.22 22.22 0 0 0 3.02 5.776 21.85 21.85 0 0 0 8.384 6.154c-3.27-9.217-5.801-19.517-4.549-29.892M5.357 81.797c.581.842 1.198 1.67 1.808 2.48.443-6.901-.28-13.828-2.137-20.489a89.388 89.388 0 0 1-1.657 5.95c-.109.344-.218.689-.325 1.036a25.534 25.534 0 0 1 2.306 11.023" fill="#A09F9F"></path><path d="M17.25 99.317c-.13-2.348-.263-4.775-.28-7.168a93.677 93.677 0 0 1 1.282-13.86c.61-3.826 1.023-7.68 1.237-11.548.292-7.634-6.768-16.78-10.036-20.59a21.349 21.349 0 0 0-1.52 3.75 73.248 73.248 0 0 1 3.97 14.002c.36 2.716.584 5.448.67 8.186L13.642 94.4a67.2 67.2 0 0 1 3.766 8.118c-.049-1.078-.108-2.15-.164-3.206" fill="#A09F9F"></path><path d="M12.268 72.106a80.783 80.783 0 0 0-.668-8.155 71.218 71.218 0 0 0-3.81-13.559 59.52 59.52 0 0 0-1.398 6.64 75.104 75.104 0 0 1 3.324 30.754c.047.072.102.147.143.22a106.252 106.252 0 0 1 3.446 5.787l-1.037-21.687z" fill="#A09F9F"></path><path d="M9.451 87.385A74.804 74.804 0 0 0 6.28 57.676 84.608 84.608 0 0 1 5.17 63.18a61.871 61.871 0 0 1 2.27 21.458c.711.943 1.407 1.86 2.01 2.748M2.916 71.22a9.885 9.885 0 0 0-.503 4.09 14.773 14.773 0 0 0 2.646 6.05 25.23 25.23 0 0 0-2.145-10.14M57.4 104.8a31.56 31.56 0 0 1-2.228-5.203 73.314 73.314 0 0 1-3.627-30.176 91.312 91.312 0 0 1-2.518-3.563 67.892 67.892 0 0 1-.732 10.494 74.52 74.52 0 0 0-.768 9.752c.205 4.73.872 9.429 1.992 14.029.672 3.208 1.433 6.842 3.485 9.685a23.12 23.12 0 0 0 2.045 2.372 5.41 5.41 0 0 1 .065-.102c1.024-1.564 2.309-3.335 3.632-5.236a17.505 17.505 0 0 1-1.344-2.058" fill="#A09F9F"></path><path d="M62.355 99.749a48.136 48.136 0 0 1-6.39-12.878 28.15 28.15 0 0 1-.925-13.037 88.151 88.151 0 0 1-3.227-4.055 73.039 73.039 0 0 0 3.645 29.719 31.19 31.19 0 0 0 2.18 5.103c.384.693.815 1.36 1.29 1.994 1.4-1.984 2.701-4.037 3.895-6.153-.16-.233-.313-.463-.468-.694M44.895 62.488c.286 2.658.24 5.341-.14 7.987a40.48 40.48 0 0 1-1.617 5.838c-.242.728-.493 1.483-.72 2.226a51.507 51.507 0 0 0 3.902 39.368c.319.687.78 1.299 1.352 1.795.577-.26 1.13-.566 1.658-.916a21.347 21.347 0 0 0 5.547-6.327 24.506 24.506 0 0 1-2.12-2.457c-2.087-2.894-2.855-6.563-3.532-9.8a72.776 72.776 0 0 1-2-14.087c.043-3.277.3-6.549.77-9.792.547-3.618.785-7.276.713-10.934a100.757 100.757 0 0 1-4.344-7.162c.224 1.299.4 2.708.534 4.268" fill="#A09F9F"></path><path d="M46.051 118.048A51.813 51.813 0 0 1 42.13 78.45c.23-.747.481-1.503.724-2.232a40.13 40.13 0 0 0 1.604-5.793c.378-2.621.423-5.28.138-7.912a46.2 46.2 0 0 0-.702-5.157c-1.909-3.548-2.861-5.853-2.861-5.856-.373-.741-.713-1.55-1.054-2.385a17.452 17.452 0 0 0-13.096-10.43 21.263 21.263 0 0 0-5.319-.367A52.13 52.13 0 0 1 26.9 39.87a14.253 14.253 0 0 1 4.58 2.36c2.247 1.908 3.3 4.867 4.11 7.49a111.805 111.805 0 0 1 3.173 12.999c.496 2.465.76 4.97.788 7.485-.042 4.207-1.188 8.346-2.294 12.337-.514 1.849-1.043 3.765-1.457 5.655a52.459 52.459 0 0 0 3.587 32.772 17.255 17.255 0 0 0 7.966-1.133 5.948 5.948 0 0 1-1.306-1.787M62.941 82.296l.142.167-.142-.167zM62.005 81.226c.313.355.628.713.936 1.07-.322-.38-.634-.736-.936-1.07" fill="#A09F9F"></path><g fill="#A09F9F"><path d="M63.252 82.826h.168v-.199h-.168z"></path><path d="M63.252 82.826h.168v-.199h-.168z"></path><path d="m63.345 82.737-.093-.112c.055.067.11.136.172.2a1.617 1.617 0 0 1-.076-.088"></path></g><path d="M65.314 85.96a12.376 12.376 0 0 0-2.13-3.378 18.192 18.192 0 0 1-.244-.286c-.305-.36-.624-.712-.938-1.07a46.31 46.31 0 0 0-.665-.717c.043.537.08 1.073.115 1.602.011.185.024.37.039.556.072 1.721.304 3.432.693 5.11a15.339 15.339 0 0 0 3.338 6.234c.8-2.637.725-5.46-.21-8.052M58.465 77.64a85.327 85.327 0 0 1-.876-.923c.296.32.574.618.805.855.022.023.048.046.071.069M61 80.158a.4.4 0 0 0-.032-.03.35.35 0 0 1 .032.033M55.297 74.14a87.17 87.17 0 0 0 2.292 2.572c-1.05-1.142-2.292-2.571-2.292-2.571" fill="#A09F9F"></path><path d="M65.414 94.341a15.61 15.61 0 0 1-3.519-6.487 29.957 29.957 0 0 1-.729-5.508c0-.071-.01-.142-.015-.214a80.287 80.287 0 0 0-.146-1.97l-.033-.033c-1.012-1.047-1.864-1.838-2.507-2.49l-.071-.07a87.542 87.542 0 0 1-3.097-3.427 27.899 27.899 0 0 0 .956 12.644A47.757 47.757 0 0 0 62.546 99.5l.437.65c.386-.713.753-1.432 1.085-2.155.546-1.174 1-2.39 1.36-3.633a.094.094 0 0 1-.015-.019" fill="#A09F9F"></path><path d="M57.358 26.4a57.343 57.343 0 0 1-2.895 6.677 45.82 45.82 0 0 0-3.32 8.112 29.779 29.779 0 0 0-1.208 8.122h-.042c.83 1.395 1.537 2.9 2.353 4.319-.084-5.368 2.46-10.21 4.933-14.894.74-1.399 1.5-2.85 2.181-4.283 4.027-8.789 4.318-17.996.803-25.286-1.464.102-2.926.184-4.39.275 2.789 6.241 3.308 11.799 1.586 16.957M44.204 22.496a42.28 42.28 0 0 1-.932 2.143c-1.161 2.567-2.26 4.993-1.74 7.836.328 1.807.828 3.572 1.314 5.28.463 1.638.938 3.333 1.28 5.104.566.547 1.143 1.086 1.713 1.628a122.12 122.12 0 0 0-.509-3.155c-.866-5.125-1.766-10.423.27-15.266 1.883-4.707 4.202-10.516 4.058-16.09a13.928 13.928 0 0 0-4.01 1.044 27.671 27.671 0 0 1-1.446 11.47" fill="#8F8F8F"></path><path d="M40.026 36.127c-1.018-3.806-1.768-7.938-.407-12.315.364-1.17.86-2.34 1.337-3.478.998-2.357 2.02-4.792 1.955-7.37a17.67 17.67 0 0 0-3.492 5.515c-1.746 4.052-2.76 8.557-1.969 12.897a19.813 19.813 0 0 0 3.62 8.033 34.968 34.968 0 0 1-1.047-3.28M71.824 16.567c.796 1.22 1.546 2.382 2.2 3.54 3.784 6.667-1.578 12.872-5.885 17.859-.452.526-.897 1.038-1.316 1.537-.44.523-.906 1.061-1.384 1.617-4.187 4.868-9.375 10.905-8.509 17.404a13.758 13.758 0 0 0 4.238 1.284 9.348 9.348 0 0 1 .61-3.76 80.458 80.458 0 0 1 9.45-12.259c2.104-2.395 4.275-4.869 6.336-7.568 4.07-5.345 1.492-10.882-1.005-16.236-.766-1.645-1.491-3.2-2.036-4.757a7.448 7.448 0 0 1-.371-2.17 27.158 27.158 0 0 0-6.165-3.461c-.024-.01-.046-.017-.071-.024a40.009 40.009 0 0 0 3.904 7.003" fill="#8F8F8F"></path><path d="M72.572 50.53a38.334 38.334 0 0 1 5.09-5.584 32.852 32.852 0 0 0 5.678-6.513 11.808 11.808 0 0 0 1.569-8.772c-.239-1.12-.55-2.224-.85-3.287a25.177 25.177 0 0 1-1.25-6.864c-2.7-2.076-5.401-4.151-8.178-6.125l-.158-.11c.028.628.142 1.251.34 1.85.54 1.539 1.26 3.087 2.025 4.726 2.535 5.435 5.155 11.055.97 16.547-2.061 2.706-4.24 5.19-6.346 7.583a80.847 80.847 0 0 0-9.41 12.194 9.195 9.195 0 0 0-.58 3.664 32.7 32.7 0 0 0 3.388.26c1.556.073 3.116.024 4.665-.145a15.678 15.678 0 0 1 3.053-9.43" fill="#8F8F8F"></path><path d="M88.908 25.667a15.878 15.878 0 0 0-4.152-4.632c-.54-.438-1.088-.863-1.628-1.282a25.63 25.63 0 0 0 1.23 6.546c.307 1.067.612 2.17.856 3.304.66 3.092.083 6.32-1.607 8.992a33.147 33.147 0 0 1-5.727 6.574 37.735 37.735 0 0 0-5.051 5.538 15.399 15.399 0 0 0-2.997 9.219c1.075-.141 2.13-.41 3.142-.8 3.61-1.424 6.255-4.58 8.281-7.888a114.428 114.428 0 0 0 7.208-12.79c1.799-4.036 2.545-8.888.454-12.778M42.552 37.84c-.485-1.715-.99-3.486-1.323-5.308-.532-2.939.584-5.404 1.766-8.015.312-.694.64-1.408.927-2.132a27.317 27.317 0 0 0 1.433-11.224 9.342 9.342 0 0 0-2.153 1.527c.152 2.748-.916 5.292-1.964 7.766-.477 1.127-.968 2.293-1.328 3.45-1.345 4.308-.599 8.385.407 12.15a34.334 34.334 0 0 0 1.425 4.244c.01.01.016.02.023.029a24.01 24.01 0 0 0 1.974 2.162c-.334-1.6-.766-3.147-1.19-4.645M61.688 39.66c1.73-2.309 3.515-4.695 5.058-7.235a17.742 17.742 0 0 0 2.326-10.978c-.61-4.592-3.673-8.811-6.648-12.456-.63.044-1.272.102-1.942.151 3.501 7.354 3.199 16.608-.849 25.438-.685 1.445-1.448 2.896-2.189 4.296-2.498 4.738-5.081 9.637-4.896 15.048 0 .072.007.154.012.237.192.319.394.633.606.937l.019-.067c1.441-5.934 4.87-10.518 8.503-15.368" fill="#8F8F8F"></path><path d="M73.761 20.256c-.651-1.15-1.401-2.304-2.194-3.524a38.94 38.94 0 0 1-4.02-7.294c-1.541-.46-3.156-.619-4.756-.47 2.96 3.64 5.966 7.837 6.58 12.447.44 3.88-.392 7.799-2.37 11.167-1.554 2.552-3.342 4.945-5.074 7.26-3.613 4.828-7.023 9.388-8.448 15.26l-.067.336c.58.807 1.269 1.53 2.046 2.149.362.28.745.532 1.145.755-.742-6.544 4.43-12.558 8.611-17.419.476-.554.94-1.093 1.379-1.614.42-.502.866-1.018 1.323-1.542 4.243-4.915 9.53-11.03 5.852-17.512M55.45 9.463c-.692.044-1.385.093-2.079.147 1.27 7.314-1.294 14.316-3.802 20.27-1.745 4.657-2 12.172-.737 17.846.215.283.425.575.622.875.062.097.118.195.18.292.072-2.635.48-5.25 1.214-7.783a46.067 46.067 0 0 1 3.342-8.162 56.421 56.421 0 0 0 2.878-6.64c1.709-5.112 1.174-10.63-1.619-16.841" fill="#8F8F8F"></path><path d="M50.921 9.833c-.32.034-.64.072-.958.113.151 5.644-2.185 11.501-4.08 16.242-2.004 4.76-1.114 10.014-.25 15.096.197 1.17.398 2.367.56 3.546A27.776 27.776 0 0 1 48.42 47.2c-1.132-5.652-.837-12.884.87-17.433 2.495-5.928 5.05-12.855 3.788-20.099a.155.155 0 0 1-.008-.037c-.712.058-1.433.122-2.149.203" fill="#8F8F8F"></path><path fill="#FEFEFE" d="M22.314 45.115V24.828h2.576v17.817h3.265v2.47zM30.332 45.115V24.828h6.081v2.416h-3.505v6.214h3.134v2.39h-3.134v6.85h3.585v2.417zM42.733 31.68l-.211-2.257-.213 2.258-.77 7.143h1.991l-.797-7.143zm1.461 13.435-.398-3.904h-2.522l-.398 3.904h-2.522v-.054l2.951-20.26h2.522l2.921 20.26v.054h-2.554zM54.254 45.115l-2.23-9.081v-2.179h1.859v-6.691H51.44v17.95h-2.575V24.828h5.894a1.513 1.513 0 0 1 1.73 1.73v7.488c0 1.063-.452 1.54-1.353 1.62h-.61l2.364 9.346v.102l-2.636.001zM64.662 45.115 61.29 33.139c.125.658.214 1.324.267 1.992v9.984h-2.523V24.828h2.39l3.346 11.815s-.239-1.46-.239-1.99v-9.825h2.522v20.287h-2.39z"></path><mask id="8kgq900lad" fill="#fff"><use xlink:href="#s2afgvjhec"></use></mask><path fill="#FEFEFE" mask="url(#8kgq900lad)" d="M69.652 45.115h2.576V24.828h-2.576zM80.46 45.115l-3.373-11.976c.125.658.214 1.324.267 1.992v9.984h-2.529V24.828h2.391l3.346 11.815s-.24-1.46-.24-1.99v-9.825h2.522v20.287H80.46zM91.345 45.115h-4.248c-1.142 0-1.673-.558-1.673-1.73V26.553c0-1.168.531-1.73 1.7-1.73h4.222a1.512 1.512 0 0 1 1.73 1.73v4.376h-2.601v-3.765h-2.477v15.613h2.47v-6.054h-1.407v-2.39h4.006v9.059a1.512 1.512 0 0 1-1.722 1.723M24.89 60.518h2.363v-8.072H24.89v8.072zm3.24 2.337h-3.24v7.541h-2.576V50.11h5.816a1.512 1.512 0 0 1 1.73 1.73v9.294a1.512 1.512 0 0 1-1.73 1.722zM32.27 70.396V50.11h2.575v17.817h3.265v2.47zM44.322 56.962l-.213-2.258-.212 2.258-.77 7.144h1.992l-.797-7.144zm1.46 13.434-.397-3.904h-2.522l-.4 3.904h-2.522v-.054l2.952-20.259h2.52l2.921 20.26v.053h-2.551zM56.084 70.396 52.712 58.42c.125.659.214 1.324.266 1.992v9.984h-2.523V50.11h2.391l3.345 11.816s-.239-1.46-.239-1.991v-9.825h2.522v20.287h-2.39zM61.047 70.396V50.11h6.081v2.417h-3.505v6.213h3.134v2.39h-3.134v6.85h3.585v2.417zM73.845 52.525v17.871h-2.58v-17.87h-2.34v-2.417h7.25v2.416zM22.34 95.678V75.39h2.576v20.287zM33.148 95.678l-3.373-11.976c.125.658.214 1.323.267 1.991v9.985h-2.523V75.39h2.39l3.346 11.815s-.24-1.46-.24-1.99V75.39h2.523v20.287h-2.39zM43.9 95.678h-4.115c-1.168 0-1.7-.558-1.7-1.73v-4.993h2.575v4.408h2.363v-4.195l-4.434-6.027a2.012 2.012 0 0 1-.509-1.567v-4.459c0-1.167.531-1.73 1.7-1.73h4.114a1.511 1.511 0 0 1 1.73 1.73v4.7h-2.602V77.7H40.66v3.93l4.435 6.027c.388.425.58.992.53 1.566v4.727a1.51 1.51 0 0 1-1.724 1.728M52.449 77.807v17.87h-2.575v-17.87h-2.34V75.39h7.248v2.417zM56.78 95.678V75.39h2.575v20.287zM66.281 77.807v17.87h-2.575v-17.87h-2.34V75.39h7.25v2.417zM76.632 95.678h-4.355c-1.167 0-1.698-.558-1.698-1.73V75.39h2.574v17.95h2.603V75.39h2.606v18.56a1.511 1.511 0 0 1-1.73 1.727M85.265 77.807v17.87H82.69v-17.87h-2.34V75.39h7.248v2.417zM89.565 95.678V75.39h6.081v2.416h-3.505v6.213h3.137v2.39h-3.134v6.85h3.585v2.418z"></path></g></svg> 