<?xml version="1.0" encoding="UTF-8"?> <svg xmlns="http://www.w3.org/2000/svg" width="262" height="56" viewBox="0 0 262 56"><g fill="#FFF" fill-rule="nonzero"><path d="M53.224 36.3V22.66s0-.34-.384-.34c-.34 0-.34.34-.34.34V36.3s0 .305.375.305c.384 0 .35-.305.35-.305z"></path><path d="M0 56h261.269V0H0v56zm23.234-19.394c.34 0 .34-.27.34-.27V21.514h.952V36.3s.079 1.144-1.222 1.144c-1.3 0-1.292-1.144-1.292-1.144V21.515h.952v14.75s-.079.341.27.341zM56.236 39.8H19.883v-1.527h36.353V39.8zM28 37.444V21.515h.76l.95 8.51v-8.51h.804v15.929h-.803l-.952-9.575v9.575H28zm8.152-8.912v.873h-1.03v7.201h1.37v.838h-2.435V21.515h2.095v.803h-1.03v6.214h1.03zm4.705 8.057c.244.017.244-.288.244-.288v-3.675c0-1.545-1.484-4.914-1.484-6.913v-3.046s0-1.108 1.257-1.143c1.257-.035 1.222 1.143 1.222 1.143v3.579h-.986v-3.579s0-.34-.27-.34c-.271 0-.228.34-.228.34v3.579c0 1.178 1.484 4.739 1.484 6.616v3.447s0 1.144-1.257 1.144-1.222-1.144-1.222-1.144v-3.997h.995v3.997c0-.008 0 .262.245.28zm5.961-14.271c-.34 0-.34.34-.34.34V36.3s.06.306.34.306c.305 0 .305-.306.305-.306v-3.997h.952v3.998s0 1.143-1.257 1.143-1.222-1.144-1.222-1.144V22.659s0-1.143 1.222-1.143 1.257 1.143 1.257 1.143v3.579h-.952v-3.579s0-.34-.305-.34zm4.73 13.982V22.659s0-1.143 1.336-1.143c1.335 0 1.257 1.143 1.257 1.143V36.3s0 1.144-1.335 1.144c-1.257 0-1.257-1.144-1.257-1.144zM19.884 19.063h36.353v1.528H19.883v-1.528zm2.933-.977 15.239-4.652 15.012 4.652h-4.416l-10.596-3.238-10.823 3.238h-4.416zm-2.933-1.641 18.172-5.604 18.18 5.604v1.64L37.942 12.56l-18.058 5.525v-1.641zm-2.06 24.421h40.394v1.519H17.823v-1.519zm42.375 4.12H15.92v-1.527h44.278v1.527zM259.69 54.42H76.11V1.58h183.58v52.84z"></path><path d="M218.048 33.935a6.115 6.115 0 0 1-4.338 1.79 6.154 6.154 0 0 1-6.145-6.145 6.148 6.148 0 0 1 6.145-6.145c1.623 0 3.151.628 4.311 1.772l.158.157 2.793-5.944-.105-.079a12.403 12.403 0 0 0-7.192-2.286c-6.878 0-12.464 5.595-12.464 12.463 0 6.878 5.595 12.464 12.464 12.464a12.36 12.36 0 0 0 7.174-2.278l.105-.078-2.749-5.848-.157.157zM235.747 35.742a6.135 6.135 0 0 1-6.127-6.127 6.135 6.135 0 0 1 6.127-6.127 6.135 6.135 0 0 1 6.127 6.127 6.135 6.135 0 0 1-6.127 6.127zm-.035-18.635c-6.86 0-12.446 5.587-12.446 12.447 0 6.86 5.586 12.446 12.446 12.446 6.86 0 12.446-5.586 12.446-12.446 0-6.86-5.577-12.447-12.446-12.447zM99.564 17.85v12.865c0 1.047.104 2.67 1.309 3.77.524.472 1.466 1.1 3.142 1.1 1.414 0 2.514-.471 3.195-1.1 1.099-1.047 1.256-2.618 1.256-3.77V17.85h7.533v13.598c0 2.67-.262 5.176-2.619 7.48-2.67 2.619-6.589 3.038-9.365 3.038-2.88 0-6.747-.42-9.418-3.038-2.147-2.095-2.566-4.442-2.566-7.009V17.85h7.533zM121.846 17.85h7.532v2.775c2.304-2.933 5.019-3.404 7.218-3.404 2.043 0 4.714.366 6.695 2.356 2.199 2.2 2.356 4.967 2.356 6.852v14.75h-7.532V29.205c0-1.518-.052-3.447-1.257-4.652-.576-.576-1.519-1.047-2.871-1.047-1.571 0-2.566.628-3.143 1.257-1.256 1.257-1.466 2.933-1.466 4.442v11.984h-7.532V17.85zM168.454 26.324c-.053-.21-.419-1.676-1.519-2.723-.838-.786-2.042-1.31-3.561-1.31-1.938 0-3.09.786-3.823 1.52-.576.628-1.1 1.466-1.309 2.513h10.212zm6.956 4.495h-17.421c0 1.257.471 2.933 1.414 3.98 1.152 1.257 2.723 1.466 3.866 1.466 1.1 0 2.252-.21 3.038-.68.104-.053.995-.629 1.623-1.938l7.114.733c-1.048 3.29-3.143 5.019-4.495 5.857-2.252 1.361-4.766 1.728-7.376 1.728-3.5 0-6.59-.629-9.313-3.352-2.042-2.042-3.508-5.123-3.508-8.998 0-3.343 1.204-6.8 3.561-9.209 2.828-2.828 6.328-3.351 8.946-3.351 2.619 0 6.38.471 9.261 3.508 2.775 2.933 3.299 6.59 3.299 9.47v.786h-.009zM194.403 23.811c-1.152-.68-2.671-1.309-4.129-1.309-.785 0-1.676.21-2.147.68-.262.263-.471.682-.471 1.048 0 .524.366.838.733 1.048.524.314 1.309.471 2.252.785l1.99.629c1.309.419 2.671.942 3.866 2.042 1.362 1.257 1.833 2.67 1.833 4.451 0 3.09-1.361 5.072-2.409 6.119-2.304 2.304-5.132 2.662-7.584 2.662-3.143 0-6.538-.68-9.575-3.343l3.194-5.071c.733.628 1.781 1.362 2.566 1.728a7.05 7.05 0 0 0 3.142.733c.472 0 1.676 0 2.357-.523.471-.367.786-.943.786-1.52 0-.418-.157-.942-.838-1.36-.524-.315-1.205-.524-2.305-.839l-1.885-.576c-1.361-.419-2.775-1.152-3.77-2.147-1.1-1.152-1.676-2.461-1.676-4.242 0-2.252.89-4.128 2.252-5.385 2.094-1.938 4.914-2.357 7.061-2.357 3.447 0 5.856.89 7.742 1.99l-2.985 4.757z"></path></g></svg> 